<svg xmlns="http://www.w3.org/2000/svg"><svg xmlns="http://www.w3.org/2000/svg" width="306" height="306" fill="none" style="z-index: 2; position: absolute; pointer-events: none;"><path fill="#fff" d="M236.1 278.4c-.7.5-1.5 1-2.2 1.5-.8.5-1.5 1-2.3 1.4-.7.4-1.3.8-2 1.2-.1.1-.2.1-.3.2-2.3 1.4-4.7 2.7-7.1 3.9-.7.4-1.5.8-2.2 1.1 0 0-.1.1-.2.1l-2.4 1.2c-1.6.8-3.3 1.5-4.9 2.2-.8.4-1.7.7-2.5 1-.8.3-1.7.7-2.5 1-.8.3-1.7.7-2.5 1h-.1c-.8.3-1.7.6-2.5.9-1.8.6-3.7 1.2-5.5 1.8-.6.2-1.3.4-1.9.6-1.9.6-3.8 1.1-5.7 1.5-.7.2-1.4.3-2.2.5-1.8.4-3.7.8-5.5 1.2-.4.1-.7.1-1.1.2-.6.1-1.3.2-1.9.3-.9.1-1.7.3-2.6.4-.4.1-.8.1-1.2.2-.5.1-1.1.2-1.7.2-1.6.2-3.3.4-4.9.6-.5.1-1.1.1-1.6.2h-.1c-.7.1-1.4.1-2.1.2-.7.1-1.4.1-2.1.1-.4 0-.9.1-1.3.1-.8 0-1.5.1-2.2.1-1 0-1.9.1-2.9.1h-5c-42.2-.6-80.1-18.5-107.2-46.9 0 0 0-.1-.1-.1-3-2.7-.4-17.1 11.7-26.2 15.2-11.5 51.6-18.7 51.6-18.7s14.1-2.3 66.4 8.6c30.6 6.4 53.9 15.7 66.9 40.9 2.7 5.2 5.4 13.2-4.1 17.4Z"></path><path fill="#000" d="M173.6 219c19.2 3.9 39.7 8.1 55.5 20.8 5.3 4.3 8.8 10.6 11.7 16.7 1.4 3 2.8 6.1 3.9 9.4.6 2.2 1.5 4.7 1 7.3-.1.7-.7 1.6-1.2 2.1-2.3 2.3-4.8 3.7-7.3 5.5-14.7 10.2-31.6 17.4-49.1 21.2-39 8.5-81.2 1.9-115.5-18.6-11.4-6.9-21.9-15.3-30.9-25.2-1-1.2-1-3.2-1-4.5.1-3 .9-5.9 1.9-8.6 2.4-6.2 5.5-12.4 10.8-16.7 3.8-2.6 7.9-4.8 12.1-6.6 13.2-5.6 27.1-9.5 41.4-11.1 1.2-.1 1.4 1.6.2 1.8-13.7 2.8-27.3 7-40 12.7-4.6 2.3-9.5 4.3-13.2 7.9-3.5 3.8-6 8.5-8 13.3-1.3 2.9-2.2 7.5-1.8 9.8 6.3 7.5 13.7 14.1 21.7 19.8 43.8 30.6 110.3 32.6 156.9 7.1 4.2-2.3 8.3-4.9 12.2-7.6 1.9-1.3 3.9-2.4 5.4-3.9.1-.1 0 0 0 .1s-.1.2-.1.2c.1-1.2-.3-2.8-.8-4.4-1.8-5.8-4.7-11.9-7.8-17.2-4.9-7.9-13.2-12.9-21.6-16.9-5.8-2.7-11.9-4.8-18.1-6.8-6.2-2-12.5-3.7-18.8-5.2-1.6-.4-1.1-2.7.5-2.4Z"></path></svg><svg xmlns="http://www.w3.org/2000/svg" width="306" height="352" fill="none" style="z-index: 3; position: absolute; pointer-events: none;"><path fill="#fff" d="M236.1 278.4c-.7.5-1.5 1-2.2 1.5-.8.5-1.5 1-2.3 1.4-.7.4-1.3.8-2 1.2-.1.1-.2.1-.3.2-2.3 1.4-4.7 2.7-7.1 3.9-.7.4-1.5.8-2.2 1.1 0 0-.1.1-.2.1l-2.4 1.2c-1.6.8-3.3 1.5-4.9 2.2-.8.4-1.7.7-2.5 1-.8.3-1.7.7-2.5 1-.8.3-1.7.7-2.5 1h-.1c-.8.3-1.7.6-2.5.9-1.8.6-3.7 1.2-5.5 1.8-.6.2-1.3.4-1.9.6-1.9.6-3.8 1.1-5.7 1.5-.7.2-1.4.3-2.2.5-1.8.4-3.7.8-5.5 1.2-.4.1-.7.1-1.1.2-.6.1-1.3.2-1.9.3-.9.1-1.7.3-2.6.4-.4.1-.8.1-1.2.2-.5.1-1.1.2-1.7.2-1.6.2-3.3.4-4.9.6-.5.1-1.1.1-1.6.2h-.1c-.7.1-1.4.1-2.1.2-.7.1-1.4.1-2.1.1-.4 0-.9.1-1.3.1-.8 0-1.5.1-2.2.1-1 0-1.9.1-2.9.1h-5c-42.2-.6-80.1-18.5-107.2-46.9 0 0 0-.1-.1-.1 3.1-6.1 14.6-17.1 26.6-26.2 4.2-3.1.9-9.6 5.6-11.7 13.6-6 31.1-6.9 31.1-6.9s14.1-2.3 66.4 8.6c48.5 10.1 46.8 14.9 62.8 58.2Z"></path><path fill="#000" d="M173.6 219c11.6 2.4 23.5 4.1 34.7 8.4 7.9 3 14.2 9.2 17.6 16.8 5 10.9 8.2 22.3 12.6 33.3.4 1.1 0 2.4-.9 3-29.4 20.6-66.6 28.2-101.9 24.1-35.4-4-69.8-19.8-94-46.4-.8-.8-.9-2-.4-2.9 2.9-6.3 6.3-12.6 10.2-18.5 5.1-7.4 11.2-14.5 19.3-18.7 4.8-2.3 10.1-3.5 15.3-4.7 6.8-1.6 13.9-2.4 20.8-2.7 1.2 0 1.3 1.7.2 1.8-10.3 1.3-20.2 3.7-30 6.9-9.8 3.1-16.7 11.2-22.5 19.4-3.9 5.6-7.4 11.6-10.4 17.7l-.1-.5c5.7 6.7 12.1 12.7 19.1 17.9 34.3 25.6 83.3 31.9 124.4 22.3 16.7-3.9 32.7-10.8 46.8-20.5 0 0-1.2 3.7-1.1 3.7-2.6-7.5-4.9-15.1-7.3-22.5-2.4-7.4-4.8-14.9-9.9-20.1-5.3-5.4-12.8-7.8-20-9.9-7.5-2.1-15.2-3.8-22.9-5.6-1.7-.3-1.2-2.6.4-2.3Z"></path><path fill="#000" d="M97.7 254.3s41.7 18.4 78.7 16.4c12.9-.7 25.2-3.8 35-11.1 0 0 2.2 20.1-26.7 31.9-28.8 11.8-78.1-20.4-87-37.2Z"></path><path fill="#fff" d="M169.601 270.8s-8.9 27.5-17.5 28.6c-8.6 1.1-54.3-35.5-58-46.3 0 0 38.9 16.6 75.5 17.7Z"></path><path fill="#000" d="M170.401 270.3c.3.2.1 1 .1.9v.2l-.1.2c-2.6 7.6-9.3 27.6-17.9 29.3-8.9.7-33.9-19.6-41.4-25.9-3.5-3-7-6.1-10.3-9.4-3.4-3.6-7-6.9-9-11.6-.8-2 1.4-4 3.3-3.1 5.8 2.5 11.9 4.9 18 7 15.2 5.2 30.9 9.4 46.9 11.3 3.4.3 7 .3 10.4 1.1Zm-1.6 1.1c-1.4.3-2.7.4-4.2.2-18-.9-35.7-4.7-52.9-9.9-6.3-1.9-12.4-4-18.6-6.4l3.3-3.1c1.6 3.8 4.8 7 7.6 10 3.1 3.3 6.4 6.4 9.8 9.4 6.8 6.1 13.8 11.8 21.2 17.1 3.7 2.6 7.5 5.2 11.4 7.2 1.6.8 3.9 2 5.6 1.9 5.1-1.3 9.2-10.2 11.5-14.8 1.9-4.1 3.6-8.3 5.1-12.5.2-.2-.1.7.2.9Z"></path><path fill="#fff" d="M169.601 270.8s13.8 21.2 19.9 22.3c6.1 1.1 18.5-18.4 21.3-33.2.1.1-12.1 10.5-41.2 10.9Z"></path><path fill="#000" d="M170.801 271.4c.2-.3.2-1 0-1.2 0-.1 0 0 0 0 .3.4.9 1.2 1.2 1.7 3 4.2 6.1 8.4 9.5 12.2 2.5 2.7 4.8 5.6 8.1 7.1 4.4.8 11.6-11.9 13.3-15.6 2.5-5.2 4.6-10.7 5.6-16.2l4.1 2.4c-.9.7-1.6 1.2-2.6 1.7-7.3 4.2-15.6 6.4-23.9 7.6-3.6.6-7.3.8-11 .9-1.6.1-2.7-.3-4.3-.6Zm-2.4-1.2c5.5-1.4 11.5-1.3 17-2.5 6.8-1.4 13.7-3.5 19.7-6.9 1.4-.8 2.8-1.7 4-2.7 1.7-1.6 4.6.1 4.1 2.4-2.3 10.8-10.4 27.6-19.8 33.6-2.8 1.7-5.7 1-8.1-1.1-2.5-2-4.5-4.4-6.4-6.7-3.7-4.5-7-9.3-10.2-14.2l-.2-.2-.1-.1c-.1-.5-.2-1.2 0-1.6Z"></path><path fill="#fff" d="M251 348.7H23.2c.2-11.6 1.5-46.8 10.3-72 3.8-11 9.6-34.4 14.9-41.4.6-.8 1.2-1.7 1.9-2.5 8-8.8 19.8-14.4 21.2-15.1 1.3-.7 2.6-.3 3.4.3 102.5 111.9 145.8 42.1 135.8 12.4 0 0 0-.1.1-.1.9 0 7.5 1.9 14.6 6.8 8.2 5.6 13.9 14.1 16.5 23.6 2 7.6 5 19.5 6.9 31.7 0 .1.1.2.1.3 5 12.3-2.6 12.8 0 32.1 1 7.5 1.7 15.4 2.1 23.9Z"></path><path fill="#000" d="M252.8 350.5c-74.4.8-155.5.9-229.6.8-1.4 0-2.5-1.1-2.5-2.5.5-18.9 2.3-37.8 6.6-56.2 1.1-4.6 2.4-9.2 3.9-13.7 2.6-7.4 4.9-14.8 7.4-22.2 2.6-7.4 4.8-15.2 9.2-21.8 2.8-3.9 6.5-7 10.3-9.8 3.8-2.8 7.9-5.2 12.1-7.3l1.1-.5c.4-.2.9-.3 1.3-.4 1-.1 2 .2 2.7.9 10.7 11.6 22 22.7 34.3 32.6 9.2 7.4 19 14.2 29.5 19.4 16.8 8.4 38.8 13.3 55.1 1.4 9.2-6.7 14.9-17.7 15.6-29 .2-3.7-.2-7.5-1.5-10.8-.2-.7-.2-1.4.2-1.9.5-1.1 1.9-1.6 3-1.2 4.6 1.4 8.6 4 12.5 6.7 8.2 4.9 14.7 12.7 18.1 21.6 3 8.9 5 18 7 27.1.5 2.4 1.4 6.9 1.6 8.3.5 1.1 1.4 3.5 1.7 5.1 1.2 4.8-.7 9.9-1.3 14.4-.6 4.3-.3 8.7.3 13.1l-.7 2.1c.2-.2.5-.6.7-1.2.2-.5 0-1.3 0-1.3 0 .1.1.3.1.7v-.3c.8 6 1.5 12 1.9 18l.2 3c-.1 1.5-.1 3.6-.8 4.9Zm-3.6-3.5c-.4-.1-.8.2-.8.3l-.1-1.4c-.4-6.9-1-13.8-2-20.6v-.3c0 .4.1.7.1.7 0 .1 0 0-.1-.2 0-.2-.1-.7 0-1.2s.4-.9.7-1.2l-.7 2.1c-1.2-6.9-.5-14.7 1.3-21.4.9-3.6 0-7.4-1.3-10.4-.6-3-1-6-1.6-9-1.3-6.8-2.9-13.5-4.6-20.1-1.5-6.4-4.1-12.6-8.3-17.7-5.4-6.6-13-11.3-21.2-13.6h-.1.1l2.1-1.2-.1.1.3-2.1c2.7 8.2 1.6 17-1.3 24.9-10.6 26.9-37.8 32.4-62.9 22.9-15.2-5.5-28.8-14.7-41.2-24.7-12.4-10.1-23.8-21.3-34.5-33l.3.3c-.2-.1-.4-.2-.5-.2-4.5 2.1-8.9 4.8-12.9 7.7-4.8 3.6-9.4 7.7-11.7 12.8-1.3 2.7-2.4 5.5-3.4 8.4-3.1 8.8-5.5 17.8-8.4 26.8-.9 2.8-2 6-2.8 8.8-5.7 20.9-7.4 42.7-8 64.3l-2.5-2.5c75.5-.1 150.6.3 226.1.7Z"></path><path fill="#000" d="M93.2 348.7h-70c.2-11.6 1.5-46.8 10.3-72 3.8-11 8-31.8 13.3-38.8.6-.8 36.1 5.2 44.9 71 2.5 18.7 1.7 27.2 1.5 39.8ZM234.401 331.7c1.9-37.1.6-57.4-1.5-71.2-1.9-12.3-8.3-21.5-8.3-21.5 1.7 1.9 7 5.5 8.5 8 2.2 3.8 4.3 8.3 6.2 13.2 0 .1.1.2.1.3 5.4 14.3 9.4 32.1 12.2 47.3 1 7.4 1.8 15.3 2.1 23.8h-19.3v.1ZM65.4 235.7c-.4 0-.8-.2-1.1-.5-.4-.5-.7-.8-.7-.8-.5-.6-.4-1.6.2-2.1.6-.5 1.6-.4 2.1.2 0 0 .2.3.6.7.5.6.5 1.6-.2 2.1-.2.3-.6.4-.9.4ZM169 300.7c-.7 0-1.4 0-2.1-.1-.8 0-1.5-.7-1.4-1.6 0-.8.7-1.5 1.6-1.4.7 0 1.3 0 2 .1.8 0 1.5.7 1.5 1.5-.1.9-.7 1.5-1.6 1.5Zm12-1c-.7 0-1.3-.5-1.5-1.2-.2-.8.4-1.6 1.2-1.8.6-.1 1.3-.3 1.9-.4.8-.2 1.6.3 1.8 1.1.2.8-.3 1.6-1.1 1.8-.7.2-1.3.3-2 .4-.1.1-.2.1-.3.1Zm-25.9-.6h-.3c-.7-.1-1.3-.3-2-.5-.8-.2-1.3-1-1.1-1.8.2-.8 1-1.3 1.8-1.1.6.2 1.3.3 1.9.4.8.2 1.3 1 1.2 1.8-.2.7-.8 1.2-1.5 1.2Zm39.2-3.9c-.5 0-1.1-.3-1.3-.8-.4-.7-.1-1.6.7-2 .6-.3 1.2-.6 1.7-.9.7-.4 1.6-.1 2 .6.4.7.1 1.6-.6 2-.6.3-1.2.7-1.8 1-.3 0-.5.1-.7.1Zm-52.6-.1c-.2 0-.4 0-.5-.1-.6-.2-1.3-.5-1.9-.7-.8-.3-1.1-1.2-.8-2 .3-.8 1.2-1.1 2-.8.6.2 1.2.5 1.8.7.8.3 1.2 1.2.9 1.9-.4.6-.9 1-1.5 1Zm-12.8-5.8c-.2 0-.5-.1-.7-.2-.6-.3-1.2-.6-1.8-1-.7-.4-1-1.3-.6-2s1.3-1 2-.6c.6.3 1.2.6 1.7.9.7.4 1 1.3.6 2-.2.6-.7.9-1.2.9Zm76.7-2.3c-.4 0-.8-.1-1.1-.4-.6-.6-.6-1.5 0-2.1.5-.5.9-.9 1.3-1.4.6-.6 1.5-.7 2.1-.1.6.6.7 1.5.1 2.1-.5.5-.9 1-1.4 1.5-.2.3-.6.4-1 .4Zm-88.7-5c-.3 0-.6-.1-.8-.3-.6-.4-1.1-.8-1.7-1.1-.7-.5-.9-1.4-.4-2.1.5-.7 1.4-.9 2.1-.4.5.4 1.1.7 1.7 1.1.7.5.9 1.4.4 2.1-.4.5-.9.7-1.3.7Zm96.8-6.4c-.2 0-.4 0-.7-.2-.7-.4-1.1-1.3-.7-2 .3-.6.6-1.2.8-1.8.3-.8 1.2-1.1 2-.8.8.3 1.1 1.2.8 2-.3.6-.6 1.3-.9 1.9-.2.6-.8.9-1.3.9Zm-108.2-1.8c-.3 0-.6-.1-.9-.3-.5-.4-1.1-.8-1.6-1.2-.6-.5-.8-1.5-.2-2.1.5-.6 1.5-.8 2.1-.2.5.4 1 .8 1.6 1.2.7.5.8 1.5.3 2.1-.4.3-.9.5-1.3.5Zm-10.8-9c-.4 0-.7-.1-1-.4-.5-.4-1-.9-1.5-1.3-.6-.5-.7-1.5-.1-2.1.5-.6 1.5-.7 2.1-.1.5.4 1 .9 1.5 1.3.6.5.7 1.5.1 2.1-.3.3-.7.5-1.1.5Zm123.2-2.6h-.2c-.8-.1-1.4-.9-1.2-1.7.1-.7.2-1.3.3-1.9.1-.8.8-1.4 1.7-1.3.8.1 1.4.8 1.3 1.7-.1.7-.2 1.3-.3 2-.3.7-.9 1.2-1.6 1.2Zm-133.6-6.9c-.4 0-.8-.1-1-.4-.5-.5-1-.9-1.4-1.4-.6-.6-.6-1.5 0-2.1.6-.6 1.5-.6 2.1 0 .5.5 1 .9 1.4 1.4.6.6.6 1.5 0 2.1-.3.3-.7.4-1.1.4Zm-9.9-10c-.4 0-.8-.2-1.1-.5-.5-.5-.9-1-1.4-1.5-.6-.6-.5-1.6.1-2.1s1.6-.5 2.1.1c.4.5.9 1 1.4 1.5.6.6.5 1.5-.1 2.1-.3.3-.6.4-1 .4ZM218 249.2c-.7 0-1.4-.5-1.5-1.3-.1-.6-.1-.9-.1-.9-.2-.8.4-1.6 1.2-1.8.8-.2 1.6.4 1.8 1.2 0 0 .1.4.2 1.1.1.8-.5 1.6-1.3 1.7h-.3ZM110.2 210.3c20.2-2.5 40.9.6 59.9 7.9 1.6.6.7 3-.9 2.4-14-5.3-28.8-8.3-43.8-8.9-5-.2-10-.2-14.9.2-1.1.1-1.3-1.4-.3-1.6Z"></path></svg><svg xmlns="http://www.w3.org/2000/svg" width="306" height="306" fill="none" style="z-index: 4; position: absolute; pointer-events: none;"><path fill="#fff" d="M183 245.6c-2.1 10.3-15.7 16.5-38.6 7.2-23.8-9.6-34.1-32.5-36.7-39.3 14.1-26.4 4.3-44.7 4.3-44.7 32.5-2.8 60.9 35.2 60.9 35.2l4.4 18.8c.4 1.6 1.2 3 2.4 4 2.1 3.7 4.6 12.2 3.3 18.8Z"></path><path fill="#000" d="M107.201 213.8c1.9-2.9 3.1-6.3 3.9-9.6 1.5-6.9 2-13.9 2.1-20.9v-2.6c-.3-2.6-1.2-5.3-2.2-7.7-1.3-3.2 3.4-5.2 4.9-2 .2.4.2 1.1.2 1.5.3 13.6.9 31.1-7.7 42.4-.6.6-1.8-.3-1.2-1.1ZM174 203.8c1.5.9 2 2.1 2.2 3.3.6 2.4.4 5 1 7.5.5 2.4 2 4.7 2.4 7.2.5 2.6 2 8.1 2.6 10.8.2.6-.2 1.3-.9 1.4-.4.1-.7 0-1-.2-1.3-1.1-1.9-2.2-2.7-3.6-1.3-2.4-2.2-4.6-3-7.3-.7-2.4-.4-5-1-7.5-.5-2.4-1.9-4.7-2.4-7.2-.3-1.2-.4-2.5.5-4 .6-.6 1.6-.8 2.3-.4Z"></path><path fill="#000" d="M181.201 230.2c-19.1-1-34.7-7-49.9-34.1 12.8 11.3 27.9 15.6 43.8 17.6l2.1 9.2c.4 1.6 2.8 6.3 4 7.3Z"></path><path fill="#000" d="M180.401 226.5c3.4 6.4 5.4 14.4 3.3 21.5-1.6 5-6.2 8.7-11.2 10.1-11.6 3.1-25-1.8-35.3-7.3-12.7-7.1-22.1-19-28.1-32-.4-1 1-1.8 1.6-.8 2.1 4.2 4.5 8.3 7.2 12 2.7 3.8 5.8 7.3 9.3 10.4 10.2 9.2 24 14.9 37.8 14.9 14.2-.4 19.6-7.9 16.3-21.7-.5-2.2-1.3-4.5-2.4-6.4-.6-.8.9-1.7 1.5-.7Z"></path><path fill="#fff" d="M219.1 106.4c1.8 8.4-1.7 12.2-1.7 34.7 0 11.3-1.1 24.2-3.3 36.6-2.3 12.8-8.7 24.9-19.4 33.9-16.2 13.5-33.2 14.1-53.3-1.6-2.8-2.2-12.6-9.6-15.1-12.1-5.6-5.5-6.1-19.7-9.7-25.2-2.5-3.8-4 2.3-9.7-4-7.9-8.6-17.4-25.9-12.7-56.5 7.6-49.6 46.9-55.4 76-49.9 29.1 5.4 44.1 22 48.9 44.1Z"></path><path fill="#000" d="M111.7 177.4c-3.5-5.7-8.4-10.5-11.6-16.4-9.7-17.9-11.7-39.7-6.5-59.3 11.1-42 51.9-49.2 88.9-37.8 20 6.2 34.7 21.3 38.8 42.1 1.5 7.5-1.7 14.7-2.2 22-.5 4.4-.7 8.8-.6 13.2.5 13.4.1 27-3.9 39.9-4.1 12.9-10.8 25.7-21.9 34-20.9 15.6-45.6 4.2-61.8-12.3-.5-.5.2-1.3.8-.9 10.6 7.6 21.9 14.8 34.9 16.2 22.7 2.6 38.5-18.6 45.2-37.8 2.9-8.3 4.4-17 4.7-25.7.3-8.9-.4-17.8-.1-26.7.1-2.2.2-4.5.4-6.7.3-3.5 1.2-9.3.5-12.7-2.1-10.4-6.7-20.4-14.1-28.1-17.3-17.9-49.9-23-72.9-14.7-27 9.9-34.1 37-35.6 63-1 15.6 3.6 30.8 15.4 41.5l4.7 4.9c1.9 2-1.5 4.7-3.1 2.3Z"></path><path fill="#fff" d="M123.5 145.6s-3.1-15-17.7-13.2c-12.6 1.6-17 31.8 11.6 40.2"></path><path fill="#000" d="M116.101 159.5c-2.3-1.3-3.9-3.5-4-6.2.1-2 .4-4.3-.1-6.3-.3-1.9-2.3-2.4-3.8-2.3-1.6.3-2.6 2.3-2.9 3.9 0 .1-.1.4-.1.5-.1.5-.9.5-1.1 0-1.3-3.9 1.6-8.2 5.8-7.7 5.9.4 6.7 6.6 5.6 11.3-.6 2 .2 3.8 1.3 5.5l.2.3c.5.6-.3 1.4-.9 1ZM196.101 135c1.5 7.1 4.3 13.7 7.8 19.9 3.1 7.6-4.9 14.8-12 14.5-.8 0-.9-1.1-.2-1.3 4.5-1.4 8.6-4.4 9.3-9 .3-1.4-.1-2.6-.8-3.8-3.3-6.2-5.3-13.3-4.8-20.3 0-.5.7-.5.7 0Z"></path><path fill="#000" d="M123 145.7c-2.3-5.9-7.3-11.5-14-11.4-.6-.1-1.6.1-2.2.1-1.7.1-3.1.7-4.4 1.9-6.4 6.4-5.3 17.7-.1 24.8 1.8 2.5 4.1 4.7 6.7 6.5 2.6 1.8 5.5 3.2 8.6 4.4.7.2.4 1.3-.3 1.2-6.7-1.4-13.1-4.7-17.5-10.2-6.8-8.2-8.2-21.9-.1-29.9 1.8-1.6 4.3-2.8 6.8-2.8.8 0 2-.2 2.8 0 4.2.2 8.2 2.3 10.8 5.6 2.3 2.8 3.6 6.2 4 9.6 0 .6-.9.8-1.1.2Z"></path></svg><svg xmlns="http://www.w3.org/2000/svg" width="306" height="306" fill="none" style="z-index: 5; position: absolute; pointer-events: none;"><path fill="#000" d="M171.6 54.8c-44.8-4.3-59.7 10.7-65.6 16-8.3 7.3-20.9 36.2-20.4 52.7.6 23 19 47.3 19.8 48.5 4.1 6.1 8.3 9.8 9.4 11.1-.6-2.2-1.6-10.1-.7-11.5-25-9.6-20.5-37.5-8.3-39.1 12.8-1.6 16.8 9.8 17.5 12.6 0 0 0 .3.1.8.1 0 .2.1.3.1 4.4 1.5 8.5-2.9 7-7.2-2.3-6.3-4.9-13.6-5.3-18.3-.6-13.6 4.9-29.1 45.4-26.9 5.2.3 9.7 1.1 14.1 2 2.2.6 8.1 2.9 6.1 8.6-1.9 5.5-5.8 1-6.9 1.5-.6.3 3.2 5.4 8.8 4.4 4.6-.8 8.3-5.5 6.7-11.7 1.6.2 3.3.4 5 .6 10.8.8 20.5-7.6 20.2-18.4-.3-11-10.6-21.7-53.2-25.8Z"></path><path fill="#000" d="M115.101 183.5c0-.1-.1-.2-.3-.5.2.6.3.8.3.5Z"></path></svg><svg xmlns="http://www.w3.org/2000/svg" width="306" height="306" fill="none" style="z-index: 6; position: absolute; pointer-events: none;"><path fill="#000" d="M163.5 138.1v.2l-.1 2.8c-.1 2.4-2.1 4.2-4.5 4.1-2.4-.1-4.2-2.2-4-4.5l.1-2.8c0-.5.2-1.1.4-1.5l8 .4c0 .4.1.8.1 1.3ZM205.3 140.3l-.1 2.6c-.1 2.2-2 3.9-4.2 3.8-2.2-.1-3.9-2-3.8-4.2l.1-2.6c0-.5.1-1 .3-1.4l7.5.3c.1.5.2 1 .2 1.5ZM173.5 124.4c2.2.3 3.9-2 3.1-4.2-.4-1.2-1.1-2.3-2.2-3-3.4-2.1-16.1-2.3-22.8 2.5-6 4.4 11.9 3.3 21.9 4.7ZM201.2 125.5c-1.8 0-2.9-2.3-2-4.2.5-1 1.2-1.9 2.2-2.4 3.1-1.5 11.4-.6 15.1 4.5 3.3 4.5-7 2-15.3 2.1Z"></path><path fill="#000" d="m169.899 138.1-16.5-.3c-2-.1-1.9-3.1.1-3l16.5 1.2c1.4.1 1.3 2.1-.1 2.1ZM209.5 139.8l-12.2.2c-2 0-2.1-2.9-.1-3h.2l12.2 1.3c.9.1.8 1.4-.1 1.5Z"></path></svg><svg xmlns="http://www.w3.org/2000/svg" width="306" height="306" fill="none" style="z-index: 7; position: absolute; pointer-events: none;"><path fill="#000" d="M188.5 179.4c-6.4 6.1-18.5 1.2-21.7-6.2-.4-.9.6-1.7 1.4-1.3 1.7.9 3.2 1.8 4.8 2.5 4.6 2.1 9.4 3.8 14.5 3.3 1-.2 1.7 1 1 1.7Z"></path></svg><svg xmlns="http://www.w3.org/2000/svg" width="306" height="306" fill="none" style="z-index: 8; position: absolute; pointer-events: none;"><path fill="#000" d="M203.1 195.805c1.5-7.9 2-15.9.7-23.8-.5-3-2.3-8-5.1-5.8-1.1.9-6.8 2.7-7.9 2.8-3.2.3-5.6-.1-7.9-1.9-2.6-2.1-2.6-3-3.2-3.2-10.5-3.5-23.7-7-28 7.1-3.5 11.5-12.3 22.8-18.8 11.6-5-8.5-4.7-24.7-5.4-28.1-1.7-8.4-4.1-12.5-5.5-11.3 0 2.7.9 34.6 1 36.3.7 8.8 1.8 11.6 5.8 17.3 4 5.7 18 21.2 36.2 22.5 18.3 1.3 28.4-.2 38.6-11.9 9.2-10.6 9.5-32.6 9.5-32.6-4.5 13.3-7.6 17.7-10 21Zm-41.2-22.5c5.2-5.7 12.8.9 21 1.5 8.1.6 11.4-4.5 12 4.5.2 2.2.5 5.9.4 8.4v.3c-.3 2.8-1.2 5.9-4 7.6-5.9 3.7-15.4 2.8-21.5 1.6-8.5-1.7-10.3-5.6-10.7-7.4-.6-7.7.7-14.2 2.8-16.5Z"></path></svg><svg xmlns="http://www.w3.org/2000/svg" width="306" height="306" fill="none" style="z-index: 9; position: absolute; pointer-events: none;"><path fill="#fff" d="M165.5 244.3s-15.3-9.3-21.6-7.7c-6.4 1.6-4.2 24.6-.1 28.3 4.1 3.7 21.6-8.1 22.7-9.1 1.1-1 .5-9.9-1-11.5Z"></path><path fill="#000" d="M163.9 246.3c.1.1.2.1 0 0-1.3-1.2-2.7-2.3-4.1-3.2-4.5-2.8-10.2-6.1-15.6-5.3-.4.1-.8.5-1.1.8-1.5 2.1-1.7 4.9-1.9 7.5-.1 3.7.2 7.4.9 11 .5 2.3 1.2 5.3 2.8 6.8.4.3 1.1.3 1.7.2 3.4-.4 6.8-2.4 9.8-4 3-1.7 5.9-3.6 8.6-5.8l-.1.1c-.1.1-.2.4-.2.3V254.4c.2-2.7-.1-5.8-1.2-8.3 0-.3.2.1.4.2Zm3.2-4c1.3 1.3 1.5 2.5 1.8 4.1.4 3.1.7 6.1 0 9.1-.2.6-.5 1.3-1.1 1.9-4.5 3.1-19.9 12.6-24.7 8.8-5-4.1-6.7-26.8-.6-30.3.5-.3 1.2-.5 1.8-.6 4.2-.4 7.8 1.3 11.6 2.6 3.1 1.2 6.4 2.5 9.5 3.7.5.2 1.2.4 1.7.7Z"></path><path fill="#fff" d="M171.301 244.5s6-9.4 12.1-10.6c6-1.2 8.8 24.2 6.1 26.6-2.7 2.3-15.3-2.7-16.7-4.3-1.5-1.6-2.4-8.6-1.5-11.7Z"></path><path fill="#000" d="M168.901 243.4c.1-.2.3-.5.5-.6.2-.1.6-.5.7-.6 3.5-3 6.3-6.7 10.5-8.8.6-.3 1.3-.5 1.9-.7.2-.1.5-.2.7-.2 7.3-1.1 10.3 23.6 7.9 28.3-2.4 4.8-16.2-.5-19.5-2.8-2.9-2.2-3.7-11.2-2.7-14.6Zm4.7 2.1c-.5 2.9-.4 6.5.7 9.3.3.3.7.5 1.1.7 2.5 1.4 5.5 2.5 8.3 3.3 1.6.4 3.2.8 4.6.4.5-1.3.6-4.4.5-6.4-.3-5.2-.9-10.7-3.2-15.5-.5-.9-1.2-2.3-2.2-2.1-4.6 1.3-8.6 5.7-10 10.3v.1c0 .1.1 0 .1-.1 0 .1.1 0 .1 0Z"></path><path fill="#000" d="M177.6 252.5c.3-5.5-3.6-10.2-8.8-10.7-5.2-.5-9.7 3.5-10.2 9-.4 5.6 3.5 10.5 8.8 11 5.4.4 9.9-3.8 10.2-9.3Z"></path><path fill="#fff" d="M158.7 250.7c.1 7.9 8.9 13.4 15 7.9 5.7-5.1 2.9-15.4-4.9-16.9 7.8 0 12.1 9.6 8.2 15.9-5.8 9.8-20.1 4.1-18.3-6.9Z"></path></svg></svg>